<?xml version="1.0" encoding="UTF-8" standalone="no"?>
<svg xmlns="http://www.w3.org/2000/svg" viewBox="0 0 64 64" width="64" height="64">
  <!-- Fundo -->
  <rect width="64" height="64" rx="10" ry="10" fill="#060f30" />
  
  <!-- Elementos gráficos de ciência de dados -->
  <!-- Gráfico de linha principal -->
  <polyline points="8,48 16,36 24,42 32,24 40,30 48,18 56,28" 
            fill="none" stroke="#4fc3f7" stroke-width="2" stroke-opacity="0.7" />
  
  <!-- Pontos de dados no gráfico principal -->
  <circle cx="16" cy="36" r="2" fill="#4fc3f7" />
  <circle cx="24" cy="42" r="2" fill="#4fc3f7" />
  <circle cx="32" cy="24" r="2" fill="#4fc3f7" />
  <circle cx="40" cy="30" r="2" fill="#4fc3f7" />
  <circle cx="48" cy="18" r="2" fill="#4fc3f7" />
  
  <!-- Gráfico de dispersão adicional no canto inferior direito -->
  <circle cx="44" cy="44" r="1.5" fill="#4fc3f7" opacity="0.6" />
  <circle cx="48" cy="48" r="1.2" fill="#4fc3f7" opacity="0.6" />
  <circle cx="52" cy="42" r="1.8" fill="#4fc3f7" opacity="0.6" />
  <circle cx="46" cy="52" r="1.3" fill="#4fc3f7" opacity="0.6" />
  <circle cx="50" cy="46" r="1.7" fill="#4fc3f7" opacity="0.6" />
  
  <!-- Gráfico de barras -->
  <rect x="12" y="42" width="4" height="13" fill="#4fc3f7" opacity="0.4" />
  <rect x="18" y="38" width="4" height="17" fill="#4fc3f7" opacity="0.4" />
  <rect x="24" y="40" width="4" height="15" fill="#4fc3f7" opacity="0.4" />
  <rect x="30" y="36" width="4" height="19" fill="#4fc3f7" opacity="0.4" />
  
  <!-- Hexágono de dados no centro -->
  <polygon points="32,28 36,30 36,34 32,36 28,34 28,30" 
           fill="none" stroke="#4fc3f7" stroke-width="1.5" />
  
  <!-- Conexões de rede/dados -->
  <line x1="18" y1="18" x2="24" y2="24" stroke="#4fc3f7" stroke-width="0.8" opacity="0.5" />
  <line x1="18" y1="18" x2="12" y2="24" stroke="#4fc3f7" stroke-width="0.8" opacity="0.5" />
  <line x1="18" y1="18" x2="24" y2="12" stroke="#4fc3f7" stroke-width="0.8" opacity="0.5" />
  <circle cx="18" cy="18" r="3" fill="#4fc3f7" opacity="0.6" />
  <circle cx="24" cy="24" r="1.5" fill="#4fc3f7" opacity="0.6" />
  <circle cx="12" cy="24" r="1.5" fill="#4fc3f7" opacity="0.6" />
  <circle cx="24" cy="12" r="1.5" fill="#4fc3f7" opacity="0.6" />

  <!-- Eixos de gráfico cartesiano -->
  <line x1="10" y1="55" x2="35" y2="55" stroke="#4fc3f7" stroke-width="1" opacity="0.5" />
  <line x1="10" y1="55" x2="10" y2="30" stroke="#4fc3f7" stroke-width="1" opacity="0.5" />
</svg> 